HIERARCHY
ROOT Hips
{
	OFFSET -0.179506 -22.333345 2.821913
	CHANNELS 6 Xposition Yposition Zposition Zrotation Yrotation Xrotation 
	JOINT LeftUpLeg
	{
		OFFSET 6.951974 -9.140623 -0.681533
		CHANNELS 3 Zrotation Yrotation Xrotation
		JOINT LeftLeg
		{
			OFFSET 3.427654 -37.519855 -0.449580
			CHANNELS 3 Zrotation Yrotation Xrotation
			JOINT LeftFoot
			{
				OFFSET -1.359570 -39.796059 -4.369333
				CHANNELS 3 Zrotation Yrotation Xrotation
				JOINT LeftToe
				{
					OFFSET 2.635814 -5.579078 11.928840
					CHANNELS 3 Zrotation Yrotation Xrotation
					End Site
					{
						OFFSET 0.000000 0.000000 0.000000
					}
				}
			}
		}
	}
	JOINT RightUpLeg
	{
		OFFSET -6.767048 -9.052170 -0.431982
		CHANNELS 3 Zrotation Yrotation Xrotation
		JOINT RightLeg
		{
			OFFSET -3.829005 -38.256897 -0.885003
			CHANNELS 3 Zrotation Yrotation Xrotation
			JOINT RightFoot
			{
				OFFSET 1.577377 -39.841461 -4.231180
				CHANNELS 3 Zrotation Yrotation Xrotation
				JOINT RightToe
				{
					OFFSET -2.537174 -4.814398 12.334795
					CHANNELS 3 Zrotation Yrotation Xrotation
					End Site
					{
						OFFSET 0.000000 0.000000 0.000000
					}
				}
			}
		}
	}
	JOINT Spine
	{
		OFFSET -0.253288 10.896323 -2.669631
		CHANNELS 3 Zrotation Yrotation Xrotation
		JOINT Spine1
		{
			OFFSET 0.548704 13.518043 0.109247
			CHANNELS 3 Zrotation Yrotation Xrotation
			JOINT Spine2
			{
				OFFSET 0.145701 5.292222 2.542457
				CHANNELS 3 Zrotation Yrotation Xrotation
				JOINT Neck
				{
					OFFSET -0.277840 21.387037 -4.285703
					CHANNELS 3 Zrotation Yrotation Xrotation
					JOINT Head
					{
						OFFSET 0.515184 6.496960 5.134897
						CHANNELS 3 Zrotation Yrotation Xrotation
						End Site
						{
							OFFSET 0.000000 0.000000 0.000000
						}
					}
				}
				JOINT LeftShoulder
				{
					OFFSET 7.884473 12.174932 -3.408961
					CHANNELS 3 Zrotation Yrotation Xrotation
					JOINT LeftArm
					{
						OFFSET 9.097692 3.046888 -0.886815
						CHANNELS 3 Zrotation Yrotation Xrotation
						JOINT LeftForeArm
						{
							OFFSET 25.961220 -1.277207 -2.745643
							CHANNELS 3 Zrotation Yrotation Xrotation
							JOINT LeftHand
							{
								OFFSET 24.923361 0.898606 -0.117091
								CHANNELS 3 Zrotation Yrotation Xrotation
								End Site
								{
									OFFSET 0.000000 0.000000 0.000000
								}
							}
						}
					}
				}
				JOINT RightShoulder
				{
					OFFSET -8.175920 11.883285 -3.861528
					CHANNELS 3 Zrotation Yrotation Xrotation
					JOINT RightArm
					{
						OFFSET -9.601238 3.255117 -0.914307
						CHANNELS 3 Zrotation Yrotation Xrotation
						JOINT RightForeArm
						{
							OFFSET -25.374195 -1.332924 -2.140099
							CHANNELS 3 Zrotation Yrotation Xrotation
							JOINT RightHand
							{
								OFFSET -25.529810 0.777228 -0.555919
								CHANNELS 3 Zrotation Yrotation Xrotation
								End Site
								{
									OFFSET 0.000000 0.000000 0.000000
								}
							}
						}
					}
				}
			}
		}
	}
}
MOTION
Frames: 7
Frame Time: 0.033333
-128.843719 14.192827 94.022835 -119.803724 2.677074 81.493642 14.910609 6.096184 -3.950080 -0.618237 6.068599 29.484196 -1.446041 0.101037 -22.350252 nan nan nan -14.707793 -14.740109 -3.665303 -1.200523 -14.330492 13.607738 8.864127 -1.546021 -5.638075 nan nan nan -6.020975 6.314584 7.992667 5.405635 -4.909546 8.733766 2.709719 2.917535 -2.790324 2.249386 -15.975032 15.008370 12.591761 -26.972781 8.044209 -4.338989 -15.448776 -0.514611 -78.102117 -39.054642 35.078766 -166.684698 -83.960208 -164.817487 19.027017 -29.358475 -45.134735 11.901476 9.366583 2.785355 36.051043 13.119091 -14.069316 -63.837151 38.551347 -54.508280 1.674295 19.774869 -23.142131 
-128.853989 14.161447 94.022659 -119.844736 2.635219 81.515658 14.887852 6.152911 -3.917710 -0.731654 6.021442 29.413493 -1.402798 0.188367 -22.325645 nan nan nan -14.756920 -14.864593 -3.873161 -1.268871 -14.462209 13.844057 8.875591 -1.493323 -5.530304 nan nan nan -5.823748 6.071869 8.029291 5.188475 -4.856971 8.362093 2.609463 2.986563 -2.398936 2.142647 -16.053501 14.839150 12.479475 -26.860769 8.475102 -4.302890 -15.483997 -0.637708 -77.803449 -38.998303 34.735412 -164.648392 -83.956465 -166.288777 18.099072 -29.797300 -43.747995 11.872418 9.530222 2.932421 36.099934 13.145987 -14.293022 -63.584152 38.430188 -54.027276 3.077437 19.953682 -22.936286 
-128.861435 14.126300 94.029755 -119.818467 2.582104 81.460830 14.859004 6.093055 -3.805131 -0.836349 6.015709 29.307617 -1.395932 0.296822 -22.225454 nan nan nan -14.828171 -14.856420 -3.892370 -1.339536 -14.620537 13.949392 8.956756 -1.465435 -5.418091 nan nan nan -5.760748 6.065087 8.105844 5.112126 -4.830130 8.346225 2.622166 2.947410 -2.370127 2.072096 -16.184733 14.798445 12.489184 -26.854045 8.528368 -4.238170 -15.669097 -0.650594 -77.632699 -39.088136 34.575374 -164.122097 -84.069266 -166.831104 18.061499 -29.815926 -43.183098 11.794275 9.673663 2.988578 36.138809 13.068546 -14.301856 -63.424646 38.249066 -53.964349 2.741807 19.930022 -22.942350 
-128.862854 14.096746 94.039642 -119.825524 2.496141 81.474628 14.827453 6.044270 -3.724902 -1.036123 6.017863 29.141674 -1.423747 0.356716 -22.184872 nan nan nan -14.880694 -14.707972 -3.988976 -1.438779 -14.801768 14.026008 9.075232 -1.480434 -5.326456 nan nan nan -5.784744 6.078121 8.113873 5.087140 -4.792839 8.388808 2.642347 2.870116 -2.466501 2.051345 -16.268492 14.766033 12.449450 -26.891613 8.625396 -4.171109 -15.795036 -0.608641 -77.511161 -39.237721 34.475403 -164.659050 -84.328190 -166.367783 18.531854 -29.710191 -43.129104 11.767012 9.758266 3.004723 36.159359 13.082223 -14.205377 -63.054727 38.154827 -53.742656 1.885138 20.154286 -23.262307 
-128.858810 14.070927 94.058319 -119.929758 2.378682 81.575602 14.758736 6.077691 -3.625694 -1.222194 6.085420 28.815722 -1.409912 0.446868 -22.145306 nan nan nan -14.927176 -14.499256 -4.232673 -1.513739 -14.938010 14.106495 9.224494 -1.525334 -5.217537 nan nan nan -5.851616 6.032735 8.058656 5.060967 -4.724459 8.301494 2.623587 2.828923 -2.460723 2.042067 -16.220675 14.634515 12.364264 -26.886792 8.889063 -4.091687 -15.789867 -0.620676 -77.438900 -39.439063 34.520068 -166.050266 -84.690373 -165.210386 19.242716 -29.415179 -43.623913 11.849462 9.725469 2.944736 36.102507 13.154730 -13.974236 -62.470411 38.111710 -53.405393 1.649923 20.561076 -23.351452 
-128.846359 14.040629 94.088615 -120.109466 2.267064 81.718707 14.692008 6.152425 -3.539674 -1.369870 6.243436 28.487376 -1.337387 0.622939 -22.109595 nan nan nan -15.002513 -14.336733 -4.570169 -1.462344 -14.950657 14.235343 9.304955 -1.644101 -5.070285 nan nan nan -5.906570 6.042050 7.942347 5.060391 -4.626171 8.232132 2.596576 2.769907 -2.419704 2.006389 -16.087291 14.564486 12.360718 -26.827396 8.945759 -4.003337 -15.774871 -0.716359 -77.320384 -39.663417 34.570567 -168.481076 -85.111042 -163.038383 19.997824 -28.905463 -44.606437 11.814419 9.606421 2.877910 36.201399 13.080336 -13.563726 -62.004415 38.131882 -52.657112 1.867950 20.228659 -23.381902 
-128.848404 14.002472 94.126251 -120.395385 2.185112 81.790371 14.683789 6.351058 -3.337522 -1.494525 6.426107 28.134355 -1.380621 0.680879 -22.030934 nan nan nan -15.083528 -14.152601 -4.846339 -1.403808 -14.983616 14.315541 9.481051 -1.636818 -4.811012 nan nan nan -5.835519 6.056536 7.899847 5.009608 -4.492956 8.268929 2.564761 2.694091 -2.509927 1.932994 -16.085520 14.646676 12.421102 -26.713527 8.716555 -4.025775 -15.813749 -0.821739 -76.987220 -39.967754 34.477925 -169.865728 -85.528008 -161.833000 20.552188 -28.353189 -45.253821 11.760212 9.577477 2.983566 36.260038 12.898831 -13.128098 -61.340360 38.356791 -51.949409 0.691071 19.734047 -23.890487 
